<?xml version="1.0" encoding="utf-8"?>
<!-- Generator: $$$/GeneralStr/196=Adobe Illustrator 27.6.0, SVG Export Plug-In . SVG Version: 6.00 Build 0)  -->
<svg version="1.1" id="Ebene_1" xmlns="http://www.w3.org/2000/svg" xmlns:xlink="http://www.w3.org/1999/xlink" x="0px" y="0px"
	 viewBox="0 0 1920 1080" style="enable-background:new 0 0 1920 1080;" xml:space="preserve">
<g>
	<polygon points="891,574.5 900.1,574.5 900.1,518 940,574.5 951,574.5 951,505.4 941.8,505.4 941.8,561.7 902.2,505.4 891,505.4 
		891,574.5 	"/>
	<path d="M997.2,575.9c15.4,0,28.5-10.3,31.2-26h-9.5c-2,10.2-11.1,17.3-22.4,17.3c-14.6,0-24.6-11.4-24.6-28.1
		c0-15.8,10.1-26.6,24.9-26.5c10.4,0.1,19.3,6.6,21.3,16.1h9.5c-2.4-14.9-14.8-24.8-30.6-24.8c-20.4,0-34.7,14.8-34.7,35.6
		C962.3,560.9,976.8,575.9,997.2,575.9L997.2,575.9z"/>
</g>
</svg>
