<?xml version="1.0" encoding="utf-8"?>
<!-- Generator: $$$/GeneralStr/196=Adobe Illustrator 27.6.0, SVG Export Plug-In . SVG Version: 6.00 Build 0)  -->
<svg version="1.1" id="Ebene_1" xmlns="http://www.w3.org/2000/svg" xmlns:xlink="http://www.w3.org/1999/xlink" x="0px" y="0px"
	 viewBox="0 0 1920 1080" style="enable-background:new 0 0 1920 1080;" xml:space="preserve">
<g>
	<path d="M668,574.5h9.1V518l39.9,56.5h11v-69.1h-9.2v56.3l-39.6-56.3H668V574.5L668,574.5z M743.3,574.5h51.4v-8.7h-42.3v-22.3
		h38.8v-8.5h-38.8v-21h41.9v-8.7h-51V574.5L743.3,574.5z M838.7,575.9c20.5,0,34.6-15,34.6-36.3c0-20.8-14.1-35.6-34.6-35.6
		c-20.7,0-35.1,14.8-35.1,35.6C803.7,560.9,818,575.9,838.7,575.9L838.7,575.9z M838.7,567.2c-15.1,0-25.5-11.6-25.5-28.1
		c0-15.5,10.3-26.5,25.5-26.5c14.9,0,24.9,11,24.9,26.5C863.7,555.6,853.6,567.2,838.7,567.2L838.7,567.2z M943.9,575.9
		c15.4,0,28.5-10.3,31.2-26h-9.5c-2,10.2-11.1,17.3-22.4,17.3c-14.6,0-24.6-11.4-24.6-28.1c0-15.8,10.1-26.6,24.9-26.5
		c10.4,0.1,19.3,6.6,21.3,16.1h9.5c-2.4-14.9-14.8-24.8-30.6-24.8c-20.4,0-34.7,14.8-34.7,35.6C909,560.9,923.4,575.9,943.9,575.9
		L943.9,575.9z M987.5,574.5h9.1v-28.9h19.9c10.2,0,12.2,1.7,13.5,11.2c0.9,6.9,0.6,13.6,2.4,17.7h9.4v-0.7
		c-2.4-5.4-1.2-10.3-2.7-20.1c-1-6.9-3.7-10.1-9.1-11.5c6.7-2.4,10.8-8.7,10.8-16.6c0-12.6-7.9-20.1-23-20.1h-30.4V574.5
		L987.5,574.5z M996.6,537.4v-23.4h19.5c10.5,0,15.2,4.4,15.2,11.7c0,7.3-4.5,11.6-14.8,11.6H996.6L996.6,537.4z M1049.4,574.5h10.1
		l7.6-17.4h36.7l7.6,17.4h10.1l-30.4-69.1h-11.2L1049.4,574.5L1049.4,574.5z M1070.8,548.4l14.6-33.5l14.6,33.5H1070.8L1070.8,548.4
		z M1130.8,574.5h9.1v-31.2h38.8v-8.5h-38.8v-21.1h41.9v-8.3h-51V574.5L1130.8,574.5z M1214.2,574.5h9.1v-60.1h27.7v-9h-64.6v9h27.7
		V574.5L1214.2,574.5z"/>
</g>
</svg>
